<svg width="128" height="38" viewBox="0 0 128 38" fill="none" xmlns="http://www.w3.org/2000/svg">
<path d="M127.289 33.6943C127.289 35.6649 125.659 37.2611 123.644 37.2611H4.36067C2.34614 37.2611 0.710938 35.6649 0.710938 33.6943V5.25017C0.710938 3.28051 2.34614 1.67871 4.36067 1.67871H123.643C125.659 1.67871 127.288 3.28051 127.288 5.25017L127.289 33.6943Z" fill="black"/>
<path d="M123.259 1.72143C125.454 1.72143 127.24 3.46285 127.24 5.60294V33.3363C127.24 35.4764 125.454 37.2178 123.259 37.2178H4.74074C2.54578 37.2178 0.759703 35.4764 0.759703 33.3363V5.60294C0.759703 3.46285 2.54578 1.72143 4.74074 1.72143H123.259ZM123.259 0.980718H4.74074C2.13452 0.980718 0 3.06187 0 5.60294V33.3363C0 35.8773 2.13452 37.9585 4.74074 37.9585H123.259C125.865 37.9585 128 35.8773 128 33.3363V5.60294C128 3.06187 125.865 0.980718 123.259 0.980718Z" fill="#A6A6A6"/>
<path d="M28.5661 19.27C28.5386 16.2905 31.0683 14.841 31.1839 14.7735C29.7513 12.7369 27.5307 12.4587 26.7504 12.4365C24.8854 12.2451 23.0763 13.5245 22.1263 13.5245C21.1573 13.5245 19.6943 12.455 18.1175 12.4864C16.0885 12.5169 14.1903 13.6623 13.1492 15.4409C11.0007 19.0675 12.6031 24.3969 14.6615 27.3283C15.6912 28.764 16.8944 30.367 18.4693 30.3106C20.01 30.2487 20.5855 29.3529 22.4448 29.3529C24.2871 29.3529 24.8275 30.3106 26.4337 30.2745C28.0873 30.2487 29.1283 28.8324 30.122 27.3838C31.3119 25.7383 31.7898 24.1178 31.8088 24.0346C31.7699 24.0216 28.5974 22.8411 28.5661 19.27Z" fill="white"/>
<path d="M25.532 10.5081C26.3607 9.49766 26.9277 8.12301 26.7703 6.72803C25.5709 6.7798 24.0709 7.53692 23.2072 8.52515C22.443 9.39597 21.7603 10.8233 21.9366 12.1656C23.284 12.2636 24.6673 11.5028 25.532 10.5081Z" fill="white"/>
<path d="M50.8634 30.1048H48.7101L47.5306 26.4911H43.4308L42.3073 30.1048H40.2109L44.2728 17.8022H46.7816L50.8634 30.1048ZM47.1751 24.975L46.1084 21.7626C45.9956 21.4344 45.7842 20.6616 45.4722 19.445H45.4343C45.3101 19.9682 45.11 20.7411 44.8351 21.7626L43.7874 24.975H47.1751Z" fill="white"/>
<path d="M61.3087 25.5603C61.3087 27.069 60.8906 28.2615 60.0543 29.1369C59.3053 29.9163 58.3751 30.3054 57.2649 30.3054C56.0664 30.3054 55.2055 29.8857 54.6812 29.0464H54.6432V33.7194H52.6218V24.1542C52.6218 23.2057 52.5962 22.2323 52.5469 21.2339H54.3247L54.4375 22.64H54.4754C55.1495 21.5805 56.1726 21.0518 57.5455 21.0518C58.6188 21.0518 59.5148 21.465 60.2316 22.2924C60.9503 23.1207 61.3087 24.2097 61.3087 25.5603ZM59.2493 25.6324C59.2493 24.7689 59.0502 24.0571 58.6501 23.4969C58.213 22.9127 57.6261 22.6205 56.8903 22.6205C56.3916 22.6205 55.9384 22.7832 55.5335 23.104C55.1277 23.4276 54.8622 23.8501 54.738 24.3733C54.6755 24.6173 54.6442 24.817 54.6442 24.9742V26.4533C54.6442 27.0985 54.8471 27.643 55.2529 28.0877C55.6587 28.5324 56.1859 28.7542 56.8344 28.7542C57.5958 28.7542 58.1884 28.4677 58.6122 27.8963C59.0369 27.3241 59.2493 26.5698 59.2493 25.6324Z" fill="white"/>
<path d="M71.7736 25.5603C71.7736 27.069 71.3555 28.2615 70.5182 29.1369C69.7701 29.9163 68.84 30.3054 67.7297 30.3054C66.5313 30.3054 65.6704 29.8857 65.147 29.0464H65.1091V33.7194H63.0876V24.1542C63.0876 23.2057 63.062 22.2323 63.0127 21.2339H64.7905L64.9033 22.64H64.9412C65.6144 21.5805 66.6375 21.0518 68.0113 21.0518C69.0837 21.0518 69.9797 21.465 70.6984 22.2924C71.4142 23.1207 71.7736 24.2097 71.7736 25.5603ZM69.7142 25.6324C69.7142 24.7689 69.5141 24.0571 69.114 23.4969C68.6769 22.9127 68.0919 22.6205 67.3552 22.6205C66.8555 22.6205 66.4033 22.7832 65.9975 23.104C65.5917 23.4276 65.3271 23.8501 65.2029 24.3733C65.1413 24.6173 65.1091 24.817 65.1091 24.9742V26.4533C65.1091 27.0985 65.312 27.643 65.7159 28.0877C66.1217 28.5314 66.6488 28.7542 67.2993 28.7542C68.0606 28.7542 68.6532 28.4677 69.0771 27.8963C69.5018 27.3241 69.7142 26.5698 69.7142 25.6324Z" fill="white"/>
<path d="M83.4744 26.6548C83.4744 27.7013 83.1018 28.5527 82.3537 29.21C81.5316 29.9283 80.3872 30.287 78.9167 30.287C77.5589 30.287 76.4704 30.0318 75.6465 29.5206L76.1149 27.8779C77.0023 28.4011 77.9761 28.6636 79.0371 28.6636C79.7984 28.6636 80.391 28.4954 80.8167 28.1607C81.2406 27.8261 81.452 27.3768 81.452 26.8166C81.452 26.3174 81.2775 25.8968 80.9277 25.5557C80.5797 25.2145 79.9985 24.8975 79.1869 24.6044C76.9777 23.8011 75.874 22.6242 75.874 21.0767C75.874 20.0654 76.2609 19.2362 77.0355 18.5909C77.8073 17.9447 78.837 17.6221 80.1246 17.6221C81.2728 17.6221 82.2266 17.8171 82.988 18.2063L82.4826 19.813C81.7715 19.4358 80.9675 19.2472 80.0677 19.2472C79.3566 19.2472 78.801 19.4183 78.4028 19.7585C78.0662 20.0626 77.8974 20.4333 77.8974 20.8724C77.8974 21.3587 78.0899 21.7608 78.4767 22.077C78.8133 22.3691 79.4249 22.6853 80.3123 23.0264C81.398 23.4525 82.1953 23.9508 82.7083 24.5221C83.2193 25.0916 83.4744 25.8043 83.4744 26.6548Z" fill="white"/>
<path d="M90.1572 22.7129H87.929V27.0199C87.929 28.1153 88.3216 28.6626 89.1085 28.6626C89.4698 28.6626 89.7694 28.6321 90.0064 28.5711L90.0624 30.0678C89.6641 30.2129 89.1398 30.2859 88.4903 30.2859C87.692 30.2859 87.0681 30.0484 86.6178 29.5741C86.1693 29.099 85.9436 28.3021 85.9436 27.1826V22.711H84.6162V21.2319H85.9436V19.6077L87.929 19.0234V21.2319H90.1572V22.7129Z" fill="white"/>
<path d="M100.21 25.5959C100.21 26.9594 99.8104 28.0789 99.012 28.9544C98.1748 29.8557 97.0636 30.305 95.6783 30.305C94.3433 30.305 93.2805 29.8733 92.4878 29.0099C91.6952 28.1464 91.2988 27.0565 91.2988 25.7429C91.2988 24.3682 91.7065 23.2423 92.5248 22.3668C93.3411 21.4904 94.4429 21.0522 95.8281 21.0522C97.1631 21.0522 98.2374 21.484 99.048 22.3483C99.8236 23.1868 100.21 24.2693 100.21 25.5959ZM98.1132 25.6597C98.1132 24.8415 97.934 24.1399 97.5708 23.5547C97.147 22.8466 96.5411 22.4935 95.7561 22.4935C94.9435 22.4935 94.3263 22.8475 93.9024 23.5547C93.5393 24.1408 93.3601 24.8536 93.3601 25.6967C93.3601 26.5148 93.5393 27.2164 93.9024 27.8007C94.3395 28.5088 94.9501 28.862 95.7381 28.862C96.5098 28.862 97.1157 28.5014 97.5528 27.7822C97.9254 27.1859 98.1132 26.4769 98.1132 25.6597Z" fill="white"/>
<path d="M106.781 22.9672C106.581 22.9312 106.368 22.9127 106.144 22.9127C105.433 22.9127 104.883 23.1743 104.496 23.6984C104.159 24.1607 103.99 24.7449 103.99 25.4503V30.1048H101.97L101.989 24.0275C101.989 23.0051 101.963 22.0742 101.913 21.2348H103.674L103.748 22.9321H103.804C104.017 22.3488 104.354 21.8791 104.814 21.5269C105.265 21.2098 105.751 21.0518 106.276 21.0518C106.462 21.0518 106.631 21.0647 106.781 21.0878V22.9672Z" fill="white"/>
<path d="M115.822 25.2497C115.822 25.6028 115.798 25.9005 115.748 26.1436H109.684C109.708 27.02 110.001 27.6902 110.564 28.1525C111.075 28.5657 111.736 28.7728 112.547 28.7728C113.445 28.7728 114.264 28.6332 115.001 28.3531L115.318 29.7212C114.457 30.0873 113.44 30.2694 112.268 30.2694C110.857 30.2694 109.749 29.8645 108.943 29.0556C108.139 28.2467 107.736 27.1605 107.736 25.7979C107.736 24.4602 108.111 23.3463 108.861 22.4579C109.646 21.5094 110.707 21.0352 112.042 21.0352C113.353 21.0352 114.346 21.5094 115.02 22.4579C115.554 23.2113 115.822 24.1431 115.822 25.2497ZM113.895 24.7385C113.908 24.1542 113.776 23.6495 113.502 23.2233C113.152 22.6751 112.615 22.4015 111.891 22.4015C111.23 22.4015 110.693 22.6686 110.282 23.2048C109.946 23.631 109.745 24.1422 109.684 24.7376H113.895V24.7385Z" fill="white"/>
<path d="M46.5065 10.2336C46.5065 11.3217 46.1718 12.1407 45.5033 12.6908C44.8842 13.1983 44.0043 13.4525 42.8646 13.4525C42.2995 13.4525 41.816 13.4285 41.4111 13.3804V7.43529C41.9393 7.35209 42.5081 7.30957 43.1225 7.30957C44.2082 7.30957 45.0264 7.53976 45.5782 8.00013C46.1964 8.52059 46.5065 9.26477 46.5065 10.2336ZM45.4588 10.2604C45.4588 9.55505 45.2673 9.01425 44.8842 8.63707C44.5012 8.26082 43.9417 8.07224 43.205 8.07224C42.8921 8.07224 42.6257 8.09257 42.4048 8.1351V12.6547C42.5271 12.6732 42.7509 12.6815 43.0761 12.6815C43.8365 12.6815 44.4234 12.4754 44.8368 12.0631C45.2502 11.6508 45.4588 11.0499 45.4588 10.2604Z" fill="white"/>
<path d="M52.0612 11.1842C52.0612 11.8545 51.8649 12.4036 51.4724 12.8344C51.0609 13.2772 50.5157 13.4981 49.8349 13.4981C49.1788 13.4981 48.6564 13.2864 48.2667 12.8612C47.878 12.4369 47.6836 11.9016 47.6836 11.2564C47.6836 10.5815 47.8837 10.0278 48.2857 9.5979C48.6877 9.16803 49.2281 8.95264 49.9089 8.95264C50.565 8.95264 51.0922 9.16433 51.4914 9.58865C51.8706 10.001 52.0612 10.5334 52.0612 11.1842ZM51.0306 11.2157C51.0306 10.8135 50.9414 10.4687 50.7641 10.1812C50.5555 9.83363 50.2588 9.65984 49.8729 9.65984C49.4737 9.65984 49.1703 9.83363 48.9617 10.1812C48.7834 10.4687 48.6953 10.8191 48.6953 11.2332C48.6953 11.6354 48.7844 11.9802 48.9617 12.2677C49.1769 12.6153 49.4765 12.7891 49.8634 12.7891C50.2426 12.7891 50.5404 12.6125 50.7546 12.2584C50.9386 11.9654 51.0306 11.6178 51.0306 11.2157Z" fill="white"/>
<path d="M59.51 9.0415L58.1115 13.3993H57.2013L56.622 11.507C56.475 11.0346 56.3555 10.565 56.2626 10.0991H56.2446C56.1583 10.5779 56.0389 11.0466 55.8853 11.507L55.2699 13.3993H54.3493L53.0342 9.0415H54.0553L54.5607 11.1132C54.683 11.6031 54.7835 12.07 54.8641 12.5119H54.8821C54.9561 12.1476 55.0784 11.6836 55.2509 11.1224L55.8853 9.04243H56.695L57.3027 11.0781C57.4497 11.5745 57.5692 12.0524 57.6611 12.5128H57.6886C57.756 12.0644 57.8574 11.5865 57.992 11.0781L58.5344 9.04243H59.51V9.0415Z" fill="white"/>
<path d="M64.6619 13.3991H63.6682V10.9031C63.6682 10.1339 63.3686 9.74935 62.7675 9.74935C62.4726 9.74935 62.2346 9.85474 62.0497 10.0664C61.8667 10.2781 61.7738 10.5277 61.7738 10.8134V13.3981H60.7802V10.2865C60.7802 9.90373 60.7678 9.48866 60.7441 9.03938H61.6174L61.6638 9.72069H61.6913C61.807 9.509 61.9796 9.33428 62.2062 9.19469C62.4755 9.03198 62.777 8.94971 63.1069 8.94971C63.5241 8.94971 63.8711 9.08098 64.147 9.34444C64.4903 9.66708 64.6619 10.1487 64.6619 10.7884V13.3991Z" fill="white"/>
<path d="M67.4019 13.3989H66.4092V7.0415H67.4019V13.3989Z" fill="white"/>
<path d="M73.2516 11.1842C73.2516 11.8545 73.0554 12.4036 72.6628 12.8344C72.2513 13.2772 71.7052 13.4981 71.0254 13.4981C70.3683 13.4981 69.8459 13.2864 69.4571 12.8612C69.0684 12.4369 68.874 11.9016 68.874 11.2564C68.874 10.5815 69.0741 10.0278 69.4761 9.5979C69.8781 9.16803 70.4186 8.95264 71.0984 8.95264C71.7554 8.95264 72.2817 9.16433 72.6818 9.58865C73.061 10.001 73.2516 10.5334 73.2516 11.1842ZM72.22 11.2157C72.22 10.8135 72.1309 10.4687 71.9536 10.1812C71.746 9.83363 71.4482 9.65984 71.0633 9.65984C70.6632 9.65984 70.3598 9.83363 70.1521 10.1812C69.9739 10.4687 69.8857 10.8191 69.8857 11.2332C69.8857 11.6354 69.9748 11.9802 70.1521 12.2677C70.3674 12.6153 70.667 12.7891 71.0538 12.7891C71.4331 12.7891 71.7298 12.6125 71.9441 12.2584C72.129 11.9654 72.22 11.6178 72.22 11.2157Z" fill="white"/>
<path d="M78.0609 13.3992H77.1687L77.0948 12.8972H77.0673C76.762 13.2975 76.3268 13.4981 75.7617 13.4981C75.3397 13.4981 74.9984 13.3659 74.7415 13.1034C74.5082 12.8649 74.3916 12.5681 74.3916 12.2159C74.3916 11.6834 74.6192 11.2776 75.0771 10.9966C75.5341 10.7156 76.177 10.5778 77.0047 10.5843V10.5029C77.0047 9.92885 76.6956 9.64227 76.0765 9.64227C75.6356 9.64227 75.2468 9.75043 74.9112 9.9649L74.7092 9.32889C75.1245 9.07836 75.6375 8.95264 76.2424 8.95264C77.4105 8.95264 77.9965 9.55353 77.9965 10.7553V12.3601C77.9965 12.7956 78.0183 13.1422 78.0609 13.3992ZM77.0293 11.9016V11.2295C75.9333 11.2111 75.3853 11.5041 75.3853 12.1078C75.3853 12.3352 75.4478 12.5053 75.5758 12.619C75.7038 12.7327 75.8669 12.7891 76.0613 12.7891C76.2794 12.7891 76.4832 12.7216 76.6691 12.5876C76.8558 12.4526 76.9706 12.2816 77.0132 12.0717C77.0237 12.0246 77.0293 11.9672 77.0293 11.9016Z" fill="white"/>
<path d="M83.7071 13.3989H82.8253L82.7789 12.6991H82.7514C82.4698 13.2316 81.99 13.4978 81.3159 13.4978C80.7773 13.4978 80.3288 13.2917 79.9733 12.8794C79.6177 12.4671 79.4404 11.9318 79.4404 11.2745C79.4404 10.5692 79.6329 9.99788 80.0197 9.56154C80.3943 9.15478 80.8532 8.95141 81.3993 8.95141C81.9995 8.95141 82.4195 9.14831 82.6584 9.54305H82.6774V7.0415H83.672V12.2249C83.672 12.6492 83.6834 13.0402 83.7071 13.3989ZM82.6774 11.5611V10.8345C82.6774 10.7088 82.6679 10.6071 82.6499 10.5294C82.594 10.2965 82.4735 10.1005 82.2906 9.94241C82.1057 9.78433 81.8828 9.70483 81.6259 9.70483C81.2552 9.70483 80.965 9.84812 80.7517 10.1356C80.5403 10.4231 80.4331 10.7901 80.4331 11.2385C80.4331 11.6693 80.5346 12.0187 80.7384 12.2877C80.9537 12.5743 81.2438 12.7176 81.6069 12.7176C81.9331 12.7176 82.1938 12.5983 82.392 12.3589C82.5835 12.138 82.6774 11.8717 82.6774 11.5611Z" fill="white"/>
<path d="M92.2057 11.1842C92.2057 11.8545 92.0095 12.4036 91.6169 12.8344C91.2054 13.2772 90.6612 13.4981 89.9795 13.4981C89.3243 13.4981 88.8019 13.2864 88.4112 12.8612C88.0225 12.4369 87.8281 11.9016 87.8281 11.2564C87.8281 10.5815 88.0282 10.0278 88.4302 9.5979C88.8322 9.16803 89.3727 8.95264 90.0544 8.95264C90.7095 8.95264 91.2377 9.16433 91.6359 9.58865C92.0151 10.001 92.2057 10.5334 92.2057 11.1842ZM91.176 11.2157C91.176 10.8135 91.0869 10.4687 90.9096 10.1812C90.7001 9.83363 90.4042 9.65984 90.0174 9.65984C89.6192 9.65984 89.3158 9.83363 89.1062 10.1812C88.928 10.4687 88.8398 10.8191 88.8398 11.2332C88.8398 11.6354 88.9289 11.9802 89.1062 12.2677C89.3215 12.6153 89.6211 12.7891 90.0079 12.7891C90.3872 12.7891 90.6858 12.6125 90.9001 12.2584C91.0831 11.9654 91.176 11.6178 91.176 11.2157Z" fill="white"/>
<path d="M97.5486 13.3991H96.5559V10.9031C96.5559 10.1339 96.2563 9.74935 95.6542 9.74935C95.3594 9.74935 95.1214 9.85474 94.9374 10.0664C94.7535 10.2781 94.6615 10.5277 94.6615 10.8134V13.3981H93.6669V10.2865C93.6669 9.90373 93.6555 9.48866 93.6318 9.03938H94.5041L94.5506 9.72069H94.5781C94.6947 9.509 94.8673 9.33428 95.0929 9.19469C95.3632 9.03198 95.6637 8.94971 95.9946 8.94971C96.4109 8.94971 96.7579 9.08098 97.0338 9.34444C97.378 9.66708 97.5486 10.1487 97.5486 10.7884V13.3991Z" fill="white"/>
<path d="M104.236 9.76704H103.142V11.884C103.142 12.422 103.336 12.6911 103.721 12.6911C103.899 12.6911 104.047 12.6763 104.164 12.6458L104.189 13.3807C103.993 13.4528 103.735 13.4889 103.418 13.4889C103.025 13.4889 102.72 13.3724 102.499 13.1394C102.277 12.9065 102.167 12.5145 102.167 11.9644V9.76704H101.514V9.04135H102.167V8.24263L103.141 7.95605V9.04043H104.235V9.76704H104.236Z" fill="white"/>
<path d="M109.496 13.3989H108.501V10.9214C108.501 10.1402 108.202 9.7492 107.602 9.7492C107.141 9.7492 106.826 9.97569 106.653 10.4287C106.624 10.5239 106.607 10.6404 106.607 10.7772V13.398H105.614V7.0415H106.607V9.66785H106.626C106.939 9.18991 107.387 8.95141 107.969 8.95141C108.38 8.95141 108.72 9.08268 108.991 9.34614C109.327 9.67432 109.496 10.1624 109.496 10.8077V13.3989Z" fill="white"/>
<path d="M114.922 11.0142C114.922 11.188 114.909 11.334 114.885 11.4533H111.905C111.918 11.8841 112.06 12.2122 112.336 12.4397C112.589 12.643 112.914 12.7447 113.312 12.7447C113.753 12.7447 114.155 12.6763 114.517 12.5386L114.673 13.2116C114.249 13.3909 113.75 13.4806 113.173 13.4806C112.48 13.4806 111.935 13.2818 111.541 12.8843C111.145 12.4868 110.948 11.9534 110.948 11.2841C110.948 10.6268 111.131 10.0796 111.5 9.64322C111.885 9.1773 112.406 8.94434 113.063 8.94434C113.705 8.94434 114.194 9.1773 114.524 9.64322C114.79 10.013 114.922 10.4706 114.922 11.0142ZM113.974 10.7636C113.981 10.4761 113.916 10.2284 113.781 10.0195C113.609 9.75045 113.346 9.61548 112.991 9.61548C112.666 9.61548 112.402 9.74675 112.2 10.0102C112.035 10.2201 111.937 10.4706 111.905 10.7636H113.974Z" fill="white"/>
</svg>
