<svg width="572" height="473" viewBox="0 0 572 473" fill="none" xmlns="http://www.w3.org/2000/svg">
<g filter="url(#filter0_d_2286_365)">
<path d="M335 61C335 38.9086 352.909 21 375 21H528C550.091 21 568 38.9086 568 61V220C568 242.091 550.091 260 528 260H375C352.909 260 335 242.091 335 220V61Z" fill="url(#paint0_linear_2286_365)"/>
</g>
<rect x="371.5" y="78.5" width="160" height="118" rx="19.5" stroke="white" stroke-opacity="0.32"/>
<line x1="362" y1="59.5" x2="542.003" y2="59.5" stroke="white" stroke-opacity="0.32" stroke-width="5"/>
<rect x="368" y="215" width="168" height="34" rx="15" fill="#D9D9D9" fill-opacity="0.32"/>
<g filter="url(#filter1_d_2286_365)">
<path d="M58 40C58 17.9086 75.9086 0 98 0H251C273.091 0 291 17.9086 291 40V199C291 221.091 273.091 239 251 239H98C75.9086 239 58 221.091 58 199V40Z" fill="url(#paint1_linear_2286_365)"/>
</g>
<rect x="94.5" y="57.5" width="160" height="118" rx="19.5" stroke="white" stroke-opacity="0.32"/>
<line x1="85" y1="38.5" x2="265.003" y2="38.5" stroke="white" stroke-opacity="0.32" stroke-width="5"/>
<rect x="91" y="194" width="168" height="34" rx="15" fill="#D9D9D9" fill-opacity="0.32"/>
<g filter="url(#filter2_d_2286_365)">
<path d="M120 139C120 116.909 137.909 99 160 99H313C335.091 99 353 116.909 353 139V298C353 320.091 335.091 338 313 338H160C137.909 338 120 320.091 120 298V139Z" fill="url(#paint2_linear_2286_365)"/>
</g>
<rect x="156.5" y="156.5" width="160" height="118" rx="19.5" stroke="white" stroke-opacity="0.32"/>
<line x1="147" y1="137.5" x2="327.003" y2="137.5" stroke="white" stroke-opacity="0.32" stroke-width="5"/>
<rect x="153" y="293" width="168" height="34" rx="15" fill="#D9D9D9" fill-opacity="0.32"/>
<g filter="url(#filter3_d_2286_365)">
<path d="M4 211C4 188.909 21.9086 171 44 171H197C219.091 171 237 188.909 237 211V370C237 392.091 219.091 410 197 410H44C21.9086 410 4 392.091 4 370V211Z" fill="url(#paint3_linear_2286_365)" shape-rendering="crispEdges"/>
</g>
<rect x="40.5" y="228.5" width="160" height="118" rx="19.5" stroke="white" stroke-opacity="0.32"/>
<line x1="31" y1="209.5" x2="211.003" y2="209.5" stroke="white" stroke-opacity="0.32" stroke-width="5"/>
<rect x="37" y="365" width="168" height="34" rx="15" fill="#D9D9D9" fill-opacity="0.32"/>
<g filter="url(#filter4_d_2286_365)">
<path d="M308 266C308 243.909 325.909 226 348 226H501C523.091 226 541 243.909 541 266V425C541 447.091 523.091 465 501 465H348C325.909 465 308 447.091 308 425V266Z" fill="url(#paint4_linear_2286_365)" shape-rendering="crispEdges"/>
</g>
<rect x="344.5" y="283.5" width="160" height="118" rx="19.5" stroke="white" stroke-opacity="0.32"/>
<line x1="335" y1="264.5" x2="515.003" y2="264.5" stroke="white" stroke-opacity="0.32" stroke-width="5"/>
<rect x="341" y="420" width="168" height="34" rx="15" fill="#D9D9D9" fill-opacity="0.32"/>
<defs>
<filter id="filter0_d_2286_365" x="331" y="21" width="241" height="247" filterUnits="userSpaceOnUse" color-interpolation-filters="sRGB">
<feFlood flood-opacity="0" result="BackgroundImageFix"/>
<feColorMatrix in="SourceAlpha" type="matrix" values="0 0 0 0 0 0 0 0 0 0 0 0 0 0 0 0 0 0 127 0" result="hardAlpha"/>
<feOffset dy="4"/>
<feGaussianBlur stdDeviation="2"/>
<feComposite in2="hardAlpha" operator="out"/>
<feColorMatrix type="matrix" values="0 0 0 0 0 0 0 0 0 0 0 0 0 0 0 0 0 0 0.25 0"/>
<feBlend mode="normal" in2="BackgroundImageFix" result="effect1_dropShadow_2286_365"/>
<feBlend mode="normal" in="SourceGraphic" in2="effect1_dropShadow_2286_365" result="shape"/>
</filter>
<filter id="filter1_d_2286_365" x="54" y="0" width="241" height="247" filterUnits="userSpaceOnUse" color-interpolation-filters="sRGB">
<feFlood flood-opacity="0" result="BackgroundImageFix"/>
<feColorMatrix in="SourceAlpha" type="matrix" values="0 0 0 0 0 0 0 0 0 0 0 0 0 0 0 0 0 0 127 0" result="hardAlpha"/>
<feOffset dy="4"/>
<feGaussianBlur stdDeviation="2"/>
<feComposite in2="hardAlpha" operator="out"/>
<feColorMatrix type="matrix" values="0 0 0 0 0 0 0 0 0 0 0 0 0 0 0 0 0 0 0.25 0"/>
<feBlend mode="normal" in2="BackgroundImageFix" result="effect1_dropShadow_2286_365"/>
<feBlend mode="normal" in="SourceGraphic" in2="effect1_dropShadow_2286_365" result="shape"/>
</filter>
<filter id="filter2_d_2286_365" x="116" y="99" width="241" height="247" filterUnits="userSpaceOnUse" color-interpolation-filters="sRGB">
<feFlood flood-opacity="0" result="BackgroundImageFix"/>
<feColorMatrix in="SourceAlpha" type="matrix" values="0 0 0 0 0 0 0 0 0 0 0 0 0 0 0 0 0 0 127 0" result="hardAlpha"/>
<feOffset dy="4"/>
<feGaussianBlur stdDeviation="2"/>
<feComposite in2="hardAlpha" operator="out"/>
<feColorMatrix type="matrix" values="0 0 0 0 0 0 0 0 0 0 0 0 0 0 0 0 0 0 0.25 0"/>
<feBlend mode="normal" in2="BackgroundImageFix" result="effect1_dropShadow_2286_365"/>
<feBlend mode="normal" in="SourceGraphic" in2="effect1_dropShadow_2286_365" result="shape"/>
</filter>
<filter id="filter3_d_2286_365" x="0" y="171" width="241" height="247" filterUnits="userSpaceOnUse" color-interpolation-filters="sRGB">
<feFlood flood-opacity="0" result="BackgroundImageFix"/>
<feColorMatrix in="SourceAlpha" type="matrix" values="0 0 0 0 0 0 0 0 0 0 0 0 0 0 0 0 0 0 127 0" result="hardAlpha"/>
<feOffset dy="4"/>
<feGaussianBlur stdDeviation="2"/>
<feComposite in2="hardAlpha" operator="out"/>
<feColorMatrix type="matrix" values="0 0 0 0 0 0 0 0 0 0 0 0 0 0 0 0 0 0 0.25 0"/>
<feBlend mode="normal" in2="BackgroundImageFix" result="effect1_dropShadow_2286_365"/>
<feBlend mode="normal" in="SourceGraphic" in2="effect1_dropShadow_2286_365" result="shape"/>
</filter>
<filter id="filter4_d_2286_365" x="304" y="226" width="241" height="247" filterUnits="userSpaceOnUse" color-interpolation-filters="sRGB">
<feFlood flood-opacity="0" result="BackgroundImageFix"/>
<feColorMatrix in="SourceAlpha" type="matrix" values="0 0 0 0 0 0 0 0 0 0 0 0 0 0 0 0 0 0 127 0" result="hardAlpha"/>
<feOffset dy="4"/>
<feGaussianBlur stdDeviation="2"/>
<feComposite in2="hardAlpha" operator="out"/>
<feColorMatrix type="matrix" values="0 0 0 0 0 0 0 0 0 0 0 0 0 0 0 0 0 0 0.25 0"/>
<feBlend mode="normal" in2="BackgroundImageFix" result="effect1_dropShadow_2286_365"/>
<feBlend mode="normal" in="SourceGraphic" in2="effect1_dropShadow_2286_365" result="shape"/>
</filter>
<linearGradient id="paint0_linear_2286_365" x1="451.5" y1="21" x2="451.5" y2="260" gradientUnits="userSpaceOnUse">
<stop stop-color="#31A47A"/>
<stop offset="1" stop-color="#042418"/>
</linearGradient>
<linearGradient id="paint1_linear_2286_365" x1="174.5" y1="0" x2="174.5" y2="239" gradientUnits="userSpaceOnUse">
<stop stop-color="#31A47A"/>
<stop offset="1" stop-color="#042418"/>
</linearGradient>
<linearGradient id="paint2_linear_2286_365" x1="236.5" y1="99" x2="236.5" y2="338" gradientUnits="userSpaceOnUse">
<stop stop-color="#31A47A"/>
<stop offset="1" stop-color="#042418"/>
</linearGradient>
<linearGradient id="paint3_linear_2286_365" x1="121" y1="103" x2="120.5" y2="410" gradientUnits="userSpaceOnUse">
<stop stop-color="#31A47A"/>
<stop offset="1" stop-color="#042418" stop-opacity="0.75"/>
</linearGradient>
<linearGradient id="paint4_linear_2286_365" x1="425" y1="123" x2="424.5" y2="465" gradientUnits="userSpaceOnUse">
<stop stop-color="#31A47A"/>
<stop offset="1" stop-color="#042418" stop-opacity="0.85"/>
</linearGradient>
</defs>
</svg>
