<svg width="128" height="38" viewBox="0 0 128 38" fill="none" xmlns="http://www.w3.org/2000/svg">
<path d="M123.259 38.0098H4.74074C2.13452 38.0098 0 35.9257 0 33.3812V5.60968C0 3.06511 2.13452 0.981094 4.74074 0.981094H123.259C125.865 0.981094 128 3.06511 128 5.60968V33.3812C128 35.9257 125.865 38.0098 123.259 38.0098Z" fill="black"/>
<path d="M123.259 1.72282C125.454 1.72282 127.24 3.46664 127.24 5.60968V33.3812C127.24 35.5242 125.454 37.268 123.259 37.268H4.74074C2.54578 37.268 0.759704 35.5242 0.759704 33.3812V5.60968C0.759704 3.46664 2.54578 1.72282 4.74074 1.72282H123.259ZM123.259 0.981094H4.74074C2.13452 0.981094 0 3.06511 0 5.60968V33.3812C0 35.9257 2.13452 38.0098 4.74074 38.0098H123.259C125.865 38.0098 128 35.9257 128 33.3812V5.60968C128 3.06511 125.865 0.981094 123.259 0.981094Z" fill="#A6A6A6"/>
<path d="M44.9585 10.4637C44.9585 11.2367 44.7215 11.8558 44.2545 12.3175C43.7176 12.8648 43.0184 13.1402 42.1615 13.1402C41.3425 13.1402 40.6433 12.8602 40.0696 12.3082C39.4948 11.7481 39.208 11.0608 39.208 10.2381C39.208 9.41533 39.4948 8.72798 40.0696 8.17255C40.6433 7.61597 41.3425 7.33594 42.1615 7.33594C42.5692 7.33594 42.9579 7.41809 43.3289 7.57084C43.6987 7.72474 43.9997 7.93302 44.2178 8.18991L43.7224 8.67823C43.3419 8.23967 42.824 8.02328 42.1615 8.02328C41.5642 8.02328 41.0462 8.22694 40.6065 8.63773C40.1716 9.04967 39.9535 9.58312 39.9535 10.2381C39.9535 10.893 40.1716 11.4311 40.6065 11.843C41.0462 12.2492 41.5642 12.4575 42.1615 12.4575C42.7956 12.4575 43.3289 12.2492 43.7496 11.8384C44.027 11.5665 44.1846 11.1915 44.2261 10.7125H42.1615V10.0437H44.9159C44.949 10.1883 44.9585 10.3283 44.9585 10.4637Z" fill="white" stroke="white" stroke-width="0.16" stroke-miterlimit="10"/>
<path d="M49.3285 8.14445H46.7412V9.90331H49.0737V10.5721H46.7412V12.331H49.3285V13.0126H46.0088V7.46289H49.3285V8.14445Z" fill="white" stroke="white" stroke-width="0.16" stroke-miterlimit="10"/>
<path d="M52.4122 13.0126H51.6797V8.14445H50.0928V7.46289H54.0003V8.14445H52.4122V13.0126Z" fill="white" stroke="white" stroke-width="0.16" stroke-miterlimit="10"/>
<path d="M56.8281 13.0126V7.46289H57.5594V13.0126H56.8281Z" fill="white" stroke="white" stroke-width="0.16" stroke-miterlimit="10"/>
<path d="M60.8008 13.0126H60.0743V8.14445H58.4814V7.46289H62.3937V8.14445H60.8008V13.0126Z" fill="white" stroke="white" stroke-width="0.16" stroke-miterlimit="10"/>
<path d="M69.792 12.2989C69.2314 12.8602 68.5369 13.1402 67.7084 13.1402C66.8753 13.1402 66.1807 12.8602 65.6202 12.2989C65.0607 11.7389 64.7822 11.0515 64.7822 10.2381C64.7822 9.42459 65.0607 8.73724 65.6202 8.17718C66.1807 7.61597 66.8753 7.33594 67.7084 7.33594C68.5322 7.33594 69.2267 7.61597 69.7873 8.18181C70.3514 8.7465 70.6299 9.42921 70.6299 10.2381C70.6299 11.0515 70.3514 11.7389 69.792 12.2989ZM66.1618 11.8338C66.5837 12.2492 67.0969 12.4575 67.7084 12.4575C68.3153 12.4575 68.8332 12.2492 69.2504 11.8338C69.6711 11.4183 69.8844 10.8849 69.8844 10.2381C69.8844 9.59122 69.6711 9.05777 69.2504 8.64236C68.8332 8.22694 68.3153 8.01865 67.7084 8.01865C67.0969 8.01865 66.5837 8.22694 66.1618 8.64236C65.741 9.05777 65.5277 9.59122 65.5277 10.2381C65.5277 10.8849 65.741 11.4183 66.1618 11.8338Z" fill="white" stroke="white" stroke-width="0.16" stroke-miterlimit="10"/>
<path d="M71.6572 13.0126V7.46289H72.5461L75.31 11.779H75.342L75.31 10.7122V7.46289H76.0412V13.0126H75.278L72.3837 8.48349H72.3517L72.3837 9.55501V13.0126H71.6572Z" fill="white" stroke="white" stroke-width="0.16" stroke-miterlimit="10"/>
<path d="M64.6022 21.1174C62.3752 21.1174 60.556 22.7721 60.556 25.0552C60.556 27.3197 62.3752 28.9918 64.6022 28.9918C66.8339 28.9918 68.6531 27.3197 68.6531 25.0552C68.6531 22.7721 66.8339 21.1174 64.6022 21.1174ZM64.6022 27.4412C63.3802 27.4412 62.329 26.4565 62.329 25.0552C62.329 23.6353 63.3802 22.668 64.6022 22.668C65.8241 22.668 66.8801 23.6353 66.8801 25.0552C66.8801 26.4565 65.8241 27.4412 64.6022 27.4412ZM55.7737 21.1174C53.542 21.1174 51.7275 22.7721 51.7275 25.0552C51.7275 27.3197 53.542 28.9918 55.7737 28.9918C58.0042 28.9918 59.82 27.3197 59.82 25.0552C59.82 22.7721 58.0042 21.1174 55.7737 21.1174ZM55.7737 27.4412C54.5506 27.4412 53.4958 26.4565 53.4958 25.0552C53.4958 23.6353 54.5506 22.668 55.7737 22.668C56.9957 22.668 58.0469 23.6353 58.0469 25.0552C58.0469 26.4565 56.9957 27.4412 55.7737 27.4412ZM45.2683 22.3243V23.9975H49.3607C49.241 24.9325 48.921 25.6199 48.4303 26.0989C47.833 26.6775 46.9026 27.3197 45.2683 27.3197C42.7497 27.3197 40.7776 25.3352 40.7776 22.8763C40.7776 20.4173 42.7497 18.4328 45.2683 18.4328C46.63 18.4328 47.6208 18.9524 48.3521 19.6258L49.5598 18.4467C48.537 17.4932 47.1764 16.7607 45.2683 16.7607C41.8146 16.7607 38.9121 19.5043 38.9121 22.8763C38.9121 26.2482 41.8146 28.9918 45.2683 28.9918C47.1349 28.9918 48.537 28.3947 49.6392 27.2746C50.7687 26.1718 51.1207 24.6212 51.1207 23.3692C51.1207 22.9804 51.0875 22.6228 51.0283 22.3243H45.2683ZM88.2265 23.6215C87.8934 22.7409 86.8659 21.1174 84.7728 21.1174C82.6988 21.1174 80.9719 22.7131 80.9719 25.0552C80.9719 27.2607 82.681 28.9918 84.9719 28.9918C86.8244 28.9918 87.8934 27.889 88.3331 27.2468L86.9583 26.3523C86.4997 27.0073 85.8751 27.4412 84.9719 27.4412C84.0748 27.4412 83.4312 27.0397 83.0188 26.2482L88.4125 24.0693L88.2265 23.6215ZM82.7272 24.9325C82.681 23.4143 83.9349 22.6367 84.8333 22.6367C85.5373 22.6367 86.1346 22.9804 86.3337 23.4722L82.7272 24.9325ZM78.3432 28.7522H80.1162V17.1808H78.3432V28.7522ZM75.4395 21.9945H75.3802C74.982 21.534 74.2223 21.1174 73.26 21.1174C71.2404 21.1174 69.3939 22.8485 69.3939 25.0679C69.3939 27.2746 71.2404 28.9918 73.26 28.9918C74.2223 28.9918 74.982 28.5717 75.3802 28.0973H75.4395V28.662C75.4395 30.1674 74.6158 30.9763 73.2872 30.9763C72.2039 30.9763 71.532 30.2126 71.2546 29.5703L69.7127 30.1987C70.1571 31.2424 71.334 32.5269 73.2872 32.5269C75.366 32.5269 77.1201 31.3327 77.1201 28.4271V21.3569H75.4395V21.9945ZM73.4117 27.4412C72.1897 27.4412 71.1669 26.4426 71.1669 25.0679C71.1669 23.6805 72.1897 22.668 73.4117 22.668C74.6158 22.668 75.5651 23.6805 75.5651 25.0679C75.5651 26.4426 74.6158 27.4412 73.4117 27.4412ZM96.5275 17.1808H92.2869V28.7522H94.0552V24.3678H96.5275C98.4913 24.3678 100.417 22.9804 100.417 20.7737C100.417 18.5682 98.4866 17.1808 96.5275 17.1808ZM96.5737 22.7582H94.0552V18.7904H96.5737C97.894 18.7904 98.6478 19.8607 98.6478 20.7737C98.6478 21.6694 97.894 22.7582 96.5737 22.7582ZM107.505 21.0954C106.227 21.0954 104.898 21.6462 104.352 22.867L105.921 23.5092C106.259 22.867 106.88 22.6587 107.537 22.6587C108.454 22.6587 109.384 23.1968 109.399 24.1468V24.2683C109.079 24.0878 108.394 23.8205 107.551 23.8205C105.861 23.8205 104.139 24.7289 104.139 26.4241C104.139 27.9746 105.523 28.9733 107.079 28.9733C108.269 28.9733 108.926 28.4491 109.338 27.8393H109.399V28.7337H111.106V24.2949C111.106 22.2433 109.537 21.0954 107.505 21.0954ZM107.291 27.4366C106.713 27.4366 105.907 27.1565 105.907 26.4565C105.907 25.5608 106.912 25.2172 107.782 25.2172C108.561 25.2172 108.926 25.385 109.399 25.606C109.26 26.6775 108.315 27.4366 107.291 27.4366ZM117.329 21.3488L115.296 26.3651H115.236L113.134 21.3488H111.227L114.385 28.3588L112.583 32.2596H114.431L119.296 21.3488H117.329ZM101.389 28.7522H103.162V17.1808H101.389V28.7522Z" fill="white"/>
<path d="M9.8938 7.95985C9.61529 8.24451 9.4541 8.68769 9.4541 9.26163V29.7339C9.4541 30.3078 9.61529 30.751 9.8938 31.0357L9.96255 31.0981L21.7125 19.6308V19.3601L9.96255 7.89273L9.8938 7.95985Z" fill="url(#paint0_linear_2071_410)"/>
<path d="M25.6252 23.4551L21.7129 19.6307V19.3599L25.6299 15.5356L25.7176 15.5853L30.3564 18.1623C31.6803 18.8936 31.6803 20.097 30.3564 20.833L25.7176 23.4053L25.6252 23.4551Z" fill="url(#paint1_linear_2071_410)"/>
<path d="M25.717 23.4052L21.7122 19.4952L9.89355 31.0355C10.3333 31.4867 11.0503 31.5411 11.8657 31.0898L25.717 23.4052Z" fill="url(#paint2_linear_2071_410)"/>
<path d="M25.717 15.5856L11.8657 7.901C11.0503 7.45434 10.3333 7.50873 9.89355 7.96002L21.7122 19.4956L25.717 15.5856Z" fill="url(#paint3_linear_2071_410)"/>
<defs>
<linearGradient id="paint0_linear_2071_410" x1="20.6692" y1="29.9471" x2="5.13792" y2="14.0394" gradientUnits="userSpaceOnUse">
<stop stop-color="#00A0FF"/>
<stop offset="0.0066" stop-color="#00A1FF"/>
<stop offset="0.2601" stop-color="#00BEFF"/>
<stop offset="0.5122" stop-color="#00D2FF"/>
<stop offset="0.7604" stop-color="#00DFFF"/>
<stop offset="1" stop-color="#00E3FF"/>
</linearGradient>
<linearGradient id="paint1_linear_2071_410" x1="32.0803" y1="19.494" x2="9.13808" y2="19.494" gradientUnits="userSpaceOnUse">
<stop stop-color="#FFE000"/>
<stop offset="0.4087" stop-color="#FFBD00"/>
<stop offset="0.7754" stop-color="#FFA500"/>
<stop offset="1" stop-color="#FF9C00"/>
</linearGradient>
<linearGradient id="paint2_linear_2071_410" x1="23.5393" y1="17.3697" x2="2.4776" y2="-4.20235" gradientUnits="userSpaceOnUse">
<stop stop-color="#FF3A44"/>
<stop offset="1" stop-color="#C31162"/>
</linearGradient>
<linearGradient id="paint3_linear_2071_410" x1="6.91855" y1="37.8468" x2="16.3235" y2="28.214" gradientUnits="userSpaceOnUse">
<stop stop-color="#32A071"/>
<stop offset="0.0685" stop-color="#2DA771"/>
<stop offset="0.4762" stop-color="#15CF74"/>
<stop offset="0.8009" stop-color="#06E775"/>
<stop offset="1" stop-color="#00F076"/>
</linearGradient>
</defs>
</svg>
