<svg width="48" height="59" viewBox="0 0 48 59" fill="none" xmlns="http://www.w3.org/2000/svg">
<path d="M22.4991 0.277826C22.7819 -0.212847 23.5305 -0.0118602 23.5305 0.55472V39.4682C23.5305 39.774 23.2831 40.0219 22.9778 40.0219H0.553565C0.128066 40.0219 -0.137872 39.5605 0.0748776 39.1913L22.4991 0.277826Z" fill="#0E8A5D"/>
<path d="M25.5009 58.7222C25.2181 59.2128 24.4695 59.0119 24.4695 58.4453V19.5318C24.4695 19.226 24.7169 18.9781 25.0222 18.9781H47.4464C47.8719 18.9781 48.1379 19.4395 47.9251 19.8087L25.5009 58.7222Z" fill="#0E8A5D"/>
<path d="M27.2125 23.347C27.1323 23.3149 27.0361 23.2586 26.9239 23.1783C26.8116 23.098 26.6513 23.0257 26.4428 22.9614C26.2344 22.8811 25.9698 22.8168 25.6491 22.7686C25.3284 22.7204 24.9666 22.714 24.4695 22.7461V20.3106C25.175 20.3266 25.8415 20.4069 26.5631 20.5515C27.3007 20.6801 27.894 20.8889 28.343 21.1781C28.2468 21.387 28.1346 21.6199 28.0063 21.877C27.878 22.118 27.7577 22.3509 27.6455 22.5758C27.5332 22.7847 27.437 22.9614 27.3568 23.106C27.2767 23.2506 27.2286 23.3309 27.2125 23.347ZM18.9141 25.2749C18.9141 24.568 19.0344 23.9334 19.2749 23.3711C19.5155 22.8088 19.8362 22.3188 20.2371 21.9011C20.654 21.4673 21.1351 21.1299 21.6803 20.8889C22.2415 20.6319 22.9212 20.3909 23.5305 20.3106V22.7686C23.0174 22.9454 22.4981 23.4032 22.1613 23.8531C21.8246 24.2869 21.6562 24.7287 21.6562 25.1785C21.6562 25.8051 21.8246 26.3112 22.1613 26.6967C22.4981 27.0823 23.0174 27.5858 23.5305 27.875V30.5C23.0014 30.2429 22.3778 29.926 21.8486 29.6368C21.3195 29.3316 20.8384 28.9781 20.4054 28.5765C19.9725 28.1748 19.6117 27.7089 19.323 27.1787C19.0504 26.6485 18.9141 26.0139 18.9141 25.2749ZM19.299 35.1072C19.5235 35.2358 19.8041 35.3643 20.1409 35.4928C20.4936 35.6053 20.8544 35.7177 21.2233 35.8302C21.5921 35.9266 21.9609 36.0069 22.3297 36.0712C22.6985 36.1355 23.0433 36.1676 23.364 36.1676H23.5305V38.4453L23.3881 38.457C23.0032 38.457 22.6023 38.4329 22.1854 38.3847C21.7845 38.3525 21.3756 38.2883 20.9587 38.1919C20.5417 38.0955 20.1409 37.967 19.756 37.8063C19.3872 37.6296 19.0665 37.4207 18.7939 37.1797L19.299 35.1072ZM24.4695 28.207C24.9987 28.448 25.4887 28.6889 26.0339 28.962C26.5952 29.2352 27.1003 29.5725 27.5493 29.9742C27.9983 30.3598 28.3671 30.8337 28.6557 31.396C28.9444 31.9583 29.0887 32.6572 29.0887 33.4926C29.0887 34.071 28.9764 34.6333 28.7519 35.1795C28.5435 35.7258 28.2388 36.2238 27.8379 36.6737C27.4531 37.1074 26.972 37.477 26.3947 37.7822C25.8174 38.0875 25.2071 38.2883 24.4695 38.3847V36.0712C25.7844 35.7499 26.3947 34.8743 26.3947 33.4444C26.3947 32.8821 26.2103 32.4162 25.8415 32.0467C25.4727 31.6772 25.0468 31.3213 24.4695 31V28.207Z" fill="#151515"/>
</svg>
