<svg width="32" height="33" viewBox="0 0 32 33" fill="none" xmlns="http://www.w3.org/2000/svg">
<path d="M32 16.6667C32 7.83025 24.8365 0.666748 16 0.666748C7.1635 0.666748 0 7.83025 0 16.6667C0 24.6527 5.851 31.2721 13.5 32.4724V21.2917H9.4375V16.6667H13.5V13.1417C13.5 9.13175 15.8888 6.91675 19.5435 6.91675C21.294 6.91675 23.125 7.22925 23.125 7.22925V11.1667H21.1075C19.1199 11.1667 18.5 12.4001 18.5 13.6655V16.6667H22.9375L22.2281 21.2917H18.5V32.4724C26.149 31.2721 32 24.6529 32 16.6667Z" fill="#1877F2"/>
<path d="M22.2281 21.2917L22.9375 16.6667H18.5V13.6655C18.5 12.4 19.1199 11.1667 21.1075 11.1667H23.125V7.22925C23.125 7.22925 21.294 6.91675 19.5434 6.91675C15.8888 6.91675 13.5 9.13175 13.5 13.1417V16.6667H9.4375V21.2917H13.5V32.4724C14.327 32.602 15.1629 32.667 16 32.6667C16.8371 32.667 17.673 32.602 18.5 32.4724V21.2917H22.2281Z" fill="white"/>
</svg>
