<svg width="32" height="33" viewBox="0 0 32 33" fill="none" xmlns="http://www.w3.org/2000/svg">
<path d="M29.0733 14.0555H27.9993V14.0002H15.9993V19.3335H23.5347C22.4353 22.4382 19.4813 24.6668 15.9993 24.6668C11.5813 24.6668 7.99935 21.0848 7.99935 16.6668C7.99935 12.2488 11.5813 8.66683 15.9993 8.66683C18.0387 8.66683 19.894 9.43616 21.3067 10.6928L25.078 6.9215C22.6967 4.70216 19.5113 3.3335 15.9993 3.3335C8.63602 3.3335 2.66602 9.3035 2.66602 16.6668C2.66602 24.0302 8.63602 30.0002 15.9993 30.0002C23.3627 30.0002 29.3327 24.0302 29.3327 16.6668C29.3327 15.7728 29.2407 14.9002 29.0733 14.0555Z" fill="#FFC107"/>
<path d="M4.20312 10.4608L8.58379 13.6735C9.76912 10.7388 12.6398 8.66683 15.9991 8.66683C18.0385 8.66683 19.8938 9.43616 21.3065 10.6928L25.0778 6.9215C22.6965 4.70216 19.5111 3.3335 15.9991 3.3335C10.8778 3.3335 6.43646 6.22483 4.20312 10.4608Z" fill="#FF3D00"/>
<path d="M16.0009 30.0001C19.4449 30.0001 22.5742 28.682 24.9402 26.5387L20.8135 23.0467C19.4299 24.099 17.7392 24.6681 16.0009 24.6667C12.5329 24.6667 9.58819 22.4554 8.47886 19.3694L4.13086 22.7194C6.33753 27.0374 10.8189 30.0001 16.0009 30.0001Z" fill="#4CAF50"/>
<path d="M29.074 14.0553H28V14H16V19.3333H23.5353C23.0095 20.8109 22.0622 22.1021 20.8107 23.0473L20.8127 23.046L24.9393 26.538C24.6473 26.8033 29.3333 23.3333 29.3333 16.6667C29.3333 15.7727 29.2413 14.9 29.074 14.0553Z" fill="#1976D2"/>
</svg>
