<svg width="1100" height="1440" viewBox="0 0 1100 1440" fill="none" xmlns="http://www.w3.org/2000/svg">
<path d="M15.3025 740.032C6.26799 728.205 6.268 711.795 15.3025 699.968L523.776 34.3298C536.984 17.0396 563.016 17.0396 576.224 34.3298L1084.7 699.968C1093.73 711.795 1093.73 728.205 1084.7 740.032L576.224 1405.67C563.016 1422.96 536.984 1422.96 523.776 1405.67L15.3025 740.032Z" fill="#0E8A5D"/>
<g filter="url(#filter0_ii_2107_282)">
<path d="M100.873 752.052C92.1042 740.573 87.72 734.834 86.0323 728.513C84.5429 722.936 84.5429 717.064 86.0323 711.487C87.72 705.166 92.1042 699.427 100.873 687.948L508.041 154.928C522.307 136.253 529.439 126.915 538.147 123.564C545.776 120.628 554.223 120.628 561.853 123.564C570.56 126.915 577.693 136.253 591.958 154.928L999.127 687.948C1007.9 699.427 1012.28 705.166 1013.97 711.487C1015.46 717.064 1015.46 722.936 1013.97 728.513C1012.28 734.834 1007.9 740.573 999.127 752.052L591.958 1285.07C577.693 1303.75 570.56 1313.08 561.853 1316.44C554.223 1319.37 545.776 1319.37 538.147 1316.44C529.439 1313.08 522.307 1303.75 508.041 1285.07L100.873 752.052Z" fill="#0C734E"/>
</g>
<g filter="url(#filter1_ii_2107_282)">
<path d="M177.261 752.052C168.493 740.573 164.109 734.834 162.421 728.513C160.932 722.936 160.932 717.065 162.421 711.487C164.109 705.166 168.493 699.427 177.261 687.948L508.041 254.928C522.306 236.253 529.439 226.915 538.147 223.564C545.776 220.628 554.223 220.628 561.852 223.564C570.56 226.915 577.693 236.253 591.958 254.928L922.738 687.948C931.506 699.427 935.89 705.166 937.578 711.487C939.068 717.065 939.068 722.936 937.578 728.513C935.89 734.834 931.506 740.573 922.738 752.052L591.958 1185.07C577.693 1203.75 570.56 1213.08 561.852 1216.44C554.223 1219.37 545.776 1219.37 538.147 1216.44C529.439 1213.08 522.306 1203.75 508.041 1185.07L177.261 752.052Z" fill="#095C3E"/>
</g>
<g filter="url(#filter2_ii_2107_282)">
<path d="M253.651 752.052C244.883 740.573 240.498 734.834 238.811 728.513C237.321 722.936 237.321 717.065 238.811 711.487C240.498 705.166 244.883 699.427 253.651 687.948L508.042 354.928C522.307 336.253 529.44 326.915 538.147 323.564C545.777 320.628 554.224 320.628 561.853 323.564C570.561 326.915 577.693 336.253 591.959 354.928L846.35 687.948C855.118 699.427 859.502 705.166 861.19 711.487C862.679 717.065 862.679 722.936 861.19 728.513C859.502 734.834 855.118 740.573 846.35 752.052L591.959 1085.07C577.693 1103.75 570.561 1113.08 561.853 1116.44C554.224 1119.37 545.777 1119.37 538.147 1116.44C529.44 1113.08 522.307 1103.75 508.042 1085.07L253.651 752.052Z" fill="#07452F"/>
</g>
<g filter="url(#filter3_ii_2107_282)">
<path d="M330.04 752.052C321.271 740.573 316.887 734.834 315.199 728.513C313.71 722.936 313.71 717.064 315.199 711.487C316.887 705.166 321.271 699.427 330.04 687.948L508.042 454.928C522.307 436.253 529.44 426.915 538.147 423.564C545.776 420.628 554.224 420.628 561.853 423.564C570.56 426.915 577.693 436.253 591.959 454.928L769.961 687.948C778.729 699.427 783.113 705.166 784.801 711.487C786.29 717.064 786.29 722.936 784.801 728.513C783.113 734.834 778.729 740.573 769.961 752.052L591.959 985.072C577.693 1003.75 570.56 1013.08 561.853 1016.44C554.224 1019.37 545.776 1019.37 538.147 1016.44C529.44 1013.08 522.307 1003.75 508.041 985.072L330.04 752.052Z" fill="#052E1F"/>
</g>
<defs>
<filter id="filter0_ii_2107_282" x="84.915" y="121.362" width="930.169" height="1215.28" filterUnits="userSpaceOnUse" color-interpolation-filters="sRGB">
<feFlood flood-opacity="0" result="BackgroundImageFix"/>
<feBlend mode="normal" in="SourceGraphic" in2="BackgroundImageFix" result="shape"/>
<feColorMatrix in="SourceAlpha" type="matrix" values="0 0 0 0 0 0 0 0 0 0 0 0 0 0 0 0 0 0 127 0" result="hardAlpha"/>
<feOffset dy="18"/>
<feGaussianBlur stdDeviation="44"/>
<feComposite in2="hardAlpha" operator="arithmetic" k2="-1" k3="1"/>
<feColorMatrix type="matrix" values="0 0 0 0 0 0 0 0 0 0 0 0 0 0 0 0 0 0 0.33 0"/>
<feBlend mode="normal" in2="shape" result="effect1_innerShadow_2107_282"/>
<feColorMatrix in="SourceAlpha" type="matrix" values="0 0 0 0 0 0 0 0 0 0 0 0 0 0 0 0 0 0 127 0" result="hardAlpha"/>
<feOffset dy="8"/>
<feGaussianBlur stdDeviation="14"/>
<feComposite in2="hardAlpha" operator="arithmetic" k2="-1" k3="1"/>
<feColorMatrix type="matrix" values="0 0 0 0 0 0 0 0 0 0 0 0 0 0 0 0 0 0 0.12 0"/>
<feBlend mode="normal" in2="effect1_innerShadow_2107_282" result="effect2_innerShadow_2107_282"/>
</filter>
<filter id="filter1_ii_2107_282" x="161.304" y="221.362" width="777.392" height="1015.28" filterUnits="userSpaceOnUse" color-interpolation-filters="sRGB">
<feFlood flood-opacity="0" result="BackgroundImageFix"/>
<feBlend mode="normal" in="SourceGraphic" in2="BackgroundImageFix" result="shape"/>
<feColorMatrix in="SourceAlpha" type="matrix" values="0 0 0 0 0 0 0 0 0 0 0 0 0 0 0 0 0 0 127 0" result="hardAlpha"/>
<feOffset dy="18"/>
<feGaussianBlur stdDeviation="44"/>
<feComposite in2="hardAlpha" operator="arithmetic" k2="-1" k3="1"/>
<feColorMatrix type="matrix" values="0 0 0 0 0 0 0 0 0 0 0 0 0 0 0 0 0 0 0.33 0"/>
<feBlend mode="normal" in2="shape" result="effect1_innerShadow_2107_282"/>
<feColorMatrix in="SourceAlpha" type="matrix" values="0 0 0 0 0 0 0 0 0 0 0 0 0 0 0 0 0 0 127 0" result="hardAlpha"/>
<feOffset dy="8"/>
<feGaussianBlur stdDeviation="14"/>
<feComposite in2="hardAlpha" operator="arithmetic" k2="-1" k3="1"/>
<feColorMatrix type="matrix" values="0 0 0 0 0 0 0 0 0 0 0 0 0 0 0 0 0 0 0.12 0"/>
<feBlend mode="normal" in2="effect1_innerShadow_2107_282" result="effect2_innerShadow_2107_282"/>
</filter>
<filter id="filter2_ii_2107_282" x="237.693" y="321.362" width="624.613" height="815.276" filterUnits="userSpaceOnUse" color-interpolation-filters="sRGB">
<feFlood flood-opacity="0" result="BackgroundImageFix"/>
<feBlend mode="normal" in="SourceGraphic" in2="BackgroundImageFix" result="shape"/>
<feColorMatrix in="SourceAlpha" type="matrix" values="0 0 0 0 0 0 0 0 0 0 0 0 0 0 0 0 0 0 127 0" result="hardAlpha"/>
<feOffset dy="18"/>
<feGaussianBlur stdDeviation="44"/>
<feComposite in2="hardAlpha" operator="arithmetic" k2="-1" k3="1"/>
<feColorMatrix type="matrix" values="0 0 0 0 0 0 0 0 0 0 0 0 0 0 0 0 0 0 0.33 0"/>
<feBlend mode="normal" in2="shape" result="effect1_innerShadow_2107_282"/>
<feColorMatrix in="SourceAlpha" type="matrix" values="0 0 0 0 0 0 0 0 0 0 0 0 0 0 0 0 0 0 127 0" result="hardAlpha"/>
<feOffset dy="8"/>
<feGaussianBlur stdDeviation="14"/>
<feComposite in2="hardAlpha" operator="arithmetic" k2="-1" k3="1"/>
<feColorMatrix type="matrix" values="0 0 0 0 0 0 0 0 0 0 0 0 0 0 0 0 0 0 0.12 0"/>
<feBlend mode="normal" in2="effect1_innerShadow_2107_282" result="effect2_innerShadow_2107_282"/>
</filter>
<filter id="filter3_ii_2107_282" x="314.082" y="421.362" width="471.836" height="615.276" filterUnits="userSpaceOnUse" color-interpolation-filters="sRGB">
<feFlood flood-opacity="0" result="BackgroundImageFix"/>
<feBlend mode="normal" in="SourceGraphic" in2="BackgroundImageFix" result="shape"/>
<feColorMatrix in="SourceAlpha" type="matrix" values="0 0 0 0 0 0 0 0 0 0 0 0 0 0 0 0 0 0 127 0" result="hardAlpha"/>
<feOffset dy="18"/>
<feGaussianBlur stdDeviation="44"/>
<feComposite in2="hardAlpha" operator="arithmetic" k2="-1" k3="1"/>
<feColorMatrix type="matrix" values="0 0 0 0 0 0 0 0 0 0 0 0 0 0 0 0 0 0 0.33 0"/>
<feBlend mode="normal" in2="shape" result="effect1_innerShadow_2107_282"/>
<feColorMatrix in="SourceAlpha" type="matrix" values="0 0 0 0 0 0 0 0 0 0 0 0 0 0 0 0 0 0 127 0" result="hardAlpha"/>
<feOffset dy="8"/>
<feGaussianBlur stdDeviation="14"/>
<feComposite in2="hardAlpha" operator="arithmetic" k2="-1" k3="1"/>
<feColorMatrix type="matrix" values="0 0 0 0 0 0 0 0 0 0 0 0 0 0 0 0 0 0 0.12 0"/>
<feBlend mode="normal" in2="effect1_innerShadow_2107_282" result="effect2_innerShadow_2107_282"/>
</filter>
</defs>
</svg>
